<?xml version="1.0" standalone="no"?>
<!DOCTYPE svg PUBLIC "-//W3C//DTD SVG 20010904//EN"
 "http://www.w3.org/TR/2001/REC-SVG-20010904/DTD/svg10.dtd">
<svg version="1.0" xmlns="http://www.w3.org/2000/svg"
 width="518.000000pt" height="482.000000pt" viewBox="0 0 518.000000 482.000000"
 preserveAspectRatio="xMidYMid meet">

<g transform="translate(0.000000,482.000000) scale(0.100000,-0.100000)"
fill="#000000" stroke="none">
<path d="M2744 4796 c-244 -56 -462 -210 -694 -491 -206 -249 -322 -356 -478
-438 -111 -58 -225 -89 -462 -123 -230 -33 -339 -60 -479 -119 -484 -204 -668
-500 -622 -995 25 -265 105 -658 217 -1068 226 -825 515 -1358 819 -1508 78
-39 80 -39 195 -39 110 0 119 2 181 32 81 40 154 109 215 203 88 137 139 270
254 667 90 307 123 400 177 491 102 173 459 438 838 622 276 134 422 180 574
180 130 0 237 -19 571 -100 342 -83 450 -102 595 -102 181 -1 284 34 390 133
184 172 180 451 -11 806 -92 170 -270 420 -444 623 -245 285 -735 781 -905
916 -185 146 -368 249 -525 294 -97 28 -315 37 -406 16z m322 -641 c114 -33
174 -163 129 -273 -62 -146 -271 -167 -355 -35 -79 125 -24 270 120 314 38 11
52 10 106 -6z m541 -150 c32 -16 61 -41 79 -67 25 -36 29 -50 29 -114 0 -64
-3 -77 -30 -115 -92 -131 -288 -111 -356 36 -33 70 -20 151 34 212 65 74 156
92 244 48z m-684 -376 c128 -35 187 -203 111 -311 -63 -90 -192 -115 -282 -56
-49 33 -92 114 -92 172 1 81 60 164 136 191 48 17 77 18 127 4z m568 -164
c108 -76 117 -230 19 -319 -79 -71 -187 -73 -267 -3 -85 74 -96 191 -27 283
58 79 192 98 275 39z m-2138 -349 c331 -64 567 -347 567 -681 0 -320 -206
-591 -515 -676 -112 -30 -296 -24 -403 14 -107 37 -177 82 -262 167 -219 218
-269 521 -133 800 38 79 60 109 132 181 72 73 101 94 181 132 151 73 281 92
433 63z"/>
<path d="M1135 2826 c-111 -27 -217 -111 -268 -212 -111 -220 -4 -483 231
-565 83 -29 215 -23 295 13 80 37 160 117 200 197 29 61 32 73 32 171 0 98 -2
110 -32 173 -56 117 -166 203 -292 227 -67 12 -102 12 -166 -4z"/>
</g>
</svg>
