<?xml version="1.0" encoding="UTF-8"?>
<!DOCTYPE svg PUBLIC "-//W3C//DTD SVG 1.1//EN" "http://www.w3.org/Graphics/SVG/1.1/DTD/svg11.dtd">
<svg xmlns="http://www.w3.org/2000/svg" version="1.1" width="750px" height="750px" style="shape-rendering:geometricPrecision; text-rendering:geometricPrecision; image-rendering:optimizeQuality; fill-rule:evenodd; clip-rule:evenodd" xmlns:xlink="http://www.w3.org/1999/xlink">
<g><path style="opacity:0.955" fill="#ff2250" d="M 232.5,128.5 C 225.538,143.09 218.038,157.424 210,171.5C 157.82,248.69 106.82,326.69 57,405.5C 53.5324,410.934 49.699,416.101 45.5,421C 43.3225,422.202 40.9892,422.702 38.5,422.5C 43.2452,399.774 48.2452,377.107 53.5,354.5C 58.2292,354.219 62.0625,352.219 65,348.5C 110.172,277.482 156.339,207.149 203.5,137.5C 201.333,136.052 199,134.885 196.5,134C 195.748,133.329 195.414,132.496 195.5,131.5C 207.709,129.138 220.042,128.138 232.5,128.5 Z"/></g>
<g><path style="opacity:0.959" fill="#ff284c" d="M 232.5,128.5 C 240.632,128.567 248.632,129.567 256.5,131.5C 257.615,134.816 257.448,138.149 256,141.5C 253.838,146.747 251.171,151.747 248,156.5C 213.228,208.388 179.228,260.722 146,313.5C 129.311,338.229 112.645,362.896 96,387.5C 76.2445,418.682 55.7445,449.348 34.5,479.5C 34.9547,460.391 36.288,441.391 38.5,422.5C 40.9892,422.702 43.3225,422.202 45.5,421C 49.699,416.101 53.5324,410.934 57,405.5C 106.82,326.69 157.82,248.69 210,171.5C 218.038,157.424 225.538,143.09 232.5,128.5 Z"/></g>
<g><path style="opacity:0.971" fill="#ff5f2d" d="M 500.5,128.5 C 513.167,128.5 525.833,128.5 538.5,128.5C 537.469,129.249 536.302,129.915 535,130.5C 521.589,154.994 506.422,178.327 489.5,200.5C 427.637,296.908 366.303,393.575 305.5,490.5C 304.745,493.053 304.078,495.72 303.5,498.5C 292.167,498.5 280.833,498.5 269.5,498.5C 347.111,375.451 425.111,252.617 503.5,130C 502.263,129.768 501.263,129.268 500.5,128.5 Z"/></g>
<g><path style="opacity:0.97" fill="#ff642b" d="M 538.5,128.5 C 539.492,128.328 540.158,128.662 540.5,129.5C 539.957,129.56 539.624,129.893 539.5,130.5C 540.127,133.702 540.794,136.869 541.5,140C 508.755,192.585 474.422,245.252 438.5,298C 439.582,299.33 440.249,300.83 440.5,302.5C 431.649,309.225 427.982,318.225 429.5,329.5C 424.376,326.303 419.876,326.97 416,331.5C 380.251,385.578 344.918,439.912 310,494.5C 307.882,493.717 306.382,492.384 305.5,490.5C 366.303,393.575 427.637,296.908 489.5,200.5C 506.422,178.327 521.589,154.994 535,130.5C 536.302,129.915 537.469,129.249 538.5,128.5 Z"/></g>
<g><path style="opacity:0.968" fill="#ff5b30" d="M 500.5,128.5 C 501.263,129.268 502.263,129.768 503.5,130C 425.111,252.617 347.111,375.451 269.5,498.5C 264.656,500.135 259.656,501.135 254.5,501.5C 254.351,500.448 254.517,499.448 255,498.5C 256.725,496.2 258.558,494.034 260.5,492C 260.167,491.667 259.833,491.333 259.5,491C 261.167,489.333 262.833,487.667 264.5,486C 265.459,481.38 267.959,477.213 272,473.5C 289.285,445.141 306.618,417.808 324,391.5C 377.344,306.64 432.177,221.973 488.5,137.5C 489.747,135.677 490.414,133.677 490.5,131.5C 493.85,130.497 497.183,129.497 500.5,128.5 Z"/></g>
<g><path style="opacity:0.929" fill="#ff672a" d="M 540.5,129.5 C 549.932,130.532 558.599,133.532 566.5,138.5C 546.34,172.823 524.673,206.157 501.5,238.5C 495.776,244.66 492.776,251.993 492.5,260.5C 481.087,272.303 472.42,285.97 466.5,301.5C 457.66,297.317 448.993,297.651 440.5,302.5C 440.249,300.83 439.582,299.33 438.5,298C 474.422,245.252 508.755,192.585 541.5,140C 540.794,136.869 540.127,133.702 539.5,130.5C 539.624,129.893 539.957,129.56 540.5,129.5 Z"/></g>
<g><path style="opacity:0.973" fill="#ff2c4b" d="M 256.5,131.5 C 261.038,131.718 265.371,132.718 269.5,134.5C 194.51,256.969 117.343,377.969 38,497.5C 36.9609,498.71 35.7942,499.71 34.5,500.5C 34.5,493.5 34.5,486.5 34.5,479.5C 55.7445,449.348 76.2445,418.682 96,387.5C 112.645,362.896 129.311,338.229 146,313.5C 179.228,260.722 213.228,208.388 248,156.5C 251.171,151.747 253.838,146.747 256,141.5C 257.448,138.149 257.615,134.816 256.5,131.5 Z"/></g>
<g><path style="opacity:0.971" fill="#ff5832" d="M 490.5,131.5 C 490.414,133.677 489.747,135.677 488.5,137.5C 432.177,221.973 377.344,306.64 324,391.5C 306.618,417.808 289.285,445.141 272,473.5C 267.959,477.213 265.459,481.38 264.5,486C 262.833,487.667 261.167,489.333 259.5,491C 259.833,491.333 260.167,491.667 260.5,492C 258.558,494.034 256.725,496.2 255,498.5C 254.517,499.448 254.351,500.448 254.5,501.5C 249.115,502.244 243.782,503.244 238.5,504.5C 244.777,490.612 251.611,476.946 259,463.5C 332.428,355.645 403.595,246.312 472.5,135.5C 478.197,133.344 484.197,132.01 490.5,131.5 Z"/></g>
<g><path style="opacity:0.923" fill="#ff1b53" d="M 195.5,131.5 C 195.414,132.496 195.748,133.329 196.5,134C 199,134.885 201.333,136.052 203.5,137.5C 156.339,207.149 110.172,277.482 65,348.5C 62.0625,352.219 58.2292,354.219 53.5,354.5C 64.8181,317.565 75.9848,280.565 87,243.5C 102.361,208.935 123.528,178.435 150.5,152C 164.284,142.569 179.284,135.736 195.5,131.5 Z"/></g>
<g><path style="opacity:0.944" fill="#ff2e49" d="M 269.5,134.5 C 275.072,135.21 280.405,136.544 285.5,138.5C 256.987,184.195 228.987,230.195 201.5,276.5C 185.904,286.677 176.57,301.011 173.5,319.5C 170.077,319.128 167.577,320.461 166,323.5C 125.059,392.897 81.2255,460.23 34.5,525.5C 34.5,517.167 34.5,508.833 34.5,500.5C 35.7942,499.71 36.9609,498.71 38,497.5C 117.343,377.969 194.51,256.969 269.5,134.5 Z"/></g>
<g><path style="opacity:0.966" fill="#ff5434" d="M 472.5,135.5 C 403.595,246.312 332.428,355.645 259,463.5C 251.611,476.946 244.777,490.612 238.5,504.5C 219.682,511.747 203.349,522.747 189.5,537.5C 195.074,522.352 202.241,508.019 211,494.5C 285.831,380.841 360.164,266.841 434,152.5C 435.481,149.89 436.648,147.223 437.5,144.5C 449.218,141.705 460.885,138.705 472.5,135.5 Z"/></g>
<g><path style="opacity:0.932" fill="#ff3346" d="M 285.5,138.5 C 294.634,141.394 303.967,143.394 313.5,144.5C 299.36,176.132 281.194,205.132 259,231.5C 252.288,244.148 246.455,257.148 241.5,270.5C 227.641,269.274 214.308,271.274 201.5,276.5C 228.987,230.195 256.987,184.195 285.5,138.5 Z"/></g>
<g><path style="opacity:0.926" fill="#ff6c26" d="M 566.5,138.5 C 577.055,140.777 585.722,146.11 592.5,154.5C 582.864,167.339 573.698,180.672 565,194.5C 557.245,205.677 549.245,216.677 541,227.5C 539.211,233.16 538.044,238.827 537.5,244.5C 526.548,236.471 514.548,234.471 501.5,238.5C 524.673,206.157 546.34,172.823 566.5,138.5 Z"/></g>
<g><path style="opacity:0.943" fill="#ff3a41" d="M 313.5,144.5 C 321.642,147.262 329.975,149.262 338.5,150.5C 338.913,156.092 337.413,161.092 334,165.5C 312.783,198.713 290.783,231.379 268,263.5C 264.769,269.423 263.269,275.757 263.5,282.5C 256.482,277.99 249.149,273.99 241.5,270.5C 246.455,257.148 252.288,244.148 259,231.5C 281.194,205.132 299.36,176.132 313.5,144.5 Z"/></g>
<g><path style="opacity:0.954" fill="#ff4e36" d="M 437.5,144.5 C 436.648,147.223 435.481,149.89 434,152.5C 360.164,266.841 285.831,380.841 211,494.5C 202.241,508.019 195.074,522.352 189.5,537.5C 173.006,560.001 154.006,580.334 132.5,598.5C 131.416,592.268 133.416,587.101 138.5,583C 138.167,582.667 137.833,582.333 137.5,582C 231.811,440.618 325.311,296.785 418,150.5C 418.483,149.552 418.649,148.552 418.5,147.5C 424.986,147.402 431.32,146.402 437.5,144.5 Z"/></g>
<g><path style="opacity:0.951" fill="#ff4b39" d="M 418.5,147.5 C 418.649,148.552 418.483,149.552 418,150.5C 325.311,296.785 231.811,440.618 137.5,582C 137.833,582.333 138.167,582.667 138.5,583C 133.416,587.101 131.416,592.268 132.5,598.5C 124.643,606.097 115.31,611.097 104.5,613.5C 125.138,577.563 146.305,541.897 168,506.5C 195.567,468.925 221.567,430.258 246,390.5C 248.422,385.668 250.255,380.668 251.5,375.5C 269.505,365.513 279.505,350.18 281.5,329.5C 284.785,329.731 287.285,328.397 289,325.5C 306.311,294.205 325.978,264.538 348,236.5C 365.525,208.427 382.025,179.76 397.5,150.5C 404.776,151.072 411.776,150.072 418.5,147.5 Z"/></g>
<g><path style="opacity:0.958" fill="#ff413e" d="M 338.5,150.5 C 347.993,150.19 357.326,151.19 366.5,153.5C 366.965,157.792 366.132,161.792 364,165.5C 335.028,208.953 305.528,251.953 275.5,294.5C 271.833,290.167 267.833,286.167 263.5,282.5C 263.269,275.757 264.769,269.423 268,263.5C 290.783,231.379 312.783,198.713 334,165.5C 337.413,161.092 338.913,156.092 338.5,150.5 Z"/></g>
<g><path style="opacity:0.949" fill="#ff473b" d="M 397.5,150.5 C 382.025,179.76 365.525,208.427 348,236.5C 325.978,264.538 306.311,294.205 289,325.5C 287.285,328.397 284.785,329.731 281.5,329.5C 282.587,317.272 280.587,305.605 275.5,294.5C 305.528,251.953 335.028,208.953 364,165.5C 366.132,161.792 366.965,157.792 366.5,153.5C 376.913,153.225 387.246,152.225 397.5,150.5 Z"/></g>
<g><path style="opacity:0.945" fill="#ff7222" d="M 592.5,154.5 C 602.3,157.966 609.634,164.3 614.5,173.5C 613.504,173.414 612.671,173.748 612,174.5C 591.767,199.952 573.767,226.952 558,255.5C 552.06,260.688 546.56,266.355 541.5,272.5C 545.028,262.424 543.694,253.091 537.5,244.5C 538.044,238.827 539.211,233.16 541,227.5C 549.245,216.677 557.245,205.677 565,194.5C 573.698,180.672 582.864,167.339 592.5,154.5 Z"/></g>
<g><path style="opacity:0.965" fill="#ff781f" d="M 614.5,173.5 C 620.962,179.969 626.295,187.303 630.5,195.5C 628.26,196.568 626.426,198.234 625,200.5C 589.958,254.752 554.791,308.919 519.5,363C 520.056,363.383 520.389,363.883 520.5,364.5C 493.32,368.524 485.987,382.857 498.5,407.5C 495.193,407.063 492.193,407.73 489.5,409.5C 480.409,425.757 469.576,440.757 457,454.5C 447.965,468.237 440.798,482.904 435.5,498.5C 426.167,498.5 416.833,498.5 407.5,498.5C 404.239,493.829 404.072,489.163 407,484.5C 452.461,416.411 497.295,347.911 541.5,279C 540.929,277.401 539.929,276.234 538.5,275.5C 538.5,273.5 539.5,272.5 541.5,272.5C 546.56,266.355 552.06,260.688 558,255.5C 573.767,226.952 591.767,199.952 612,174.5C 612.671,173.748 613.504,173.414 614.5,173.5 Z"/></g>
<g><path style="opacity:0.928" fill="#ff7f1c" d="M 630.5,195.5 C 639.823,203.802 645.823,214.135 648.5,226.5C 645.231,226.884 642.397,228.218 640,230.5C 626.32,255.213 611.153,278.88 594.5,301.5C 574.088,296.709 560.755,304.376 554.5,324.5C 557.802,335.119 563.802,343.785 572.5,350.5C 570.459,350.854 568.626,350.854 567,350.5C 565.352,351.717 563.519,352.55 561.5,353C 557.632,362.066 551.632,369.399 543.5,375C 542.552,375.483 541.552,375.649 540.5,375.5C 535.017,369.757 528.35,366.09 520.5,364.5C 520.389,363.883 520.056,363.383 519.5,363C 554.791,308.919 589.958,254.752 625,200.5C 626.426,198.234 628.26,196.568 630.5,195.5 Z"/></g>
<g><path style="opacity:0.909" fill="#ff8619" d="M 648.5,226.5 C 655.601,236.439 660.601,247.439 663.5,259.5C 662.399,260.598 661.066,260.765 659.5,260C 657.807,257.048 655.974,256.882 654,259.5C 639.996,280.167 626.996,301.5 615,323.5C 612.261,326.118 609.427,328.618 606.5,331C 605.423,331.47 604.423,331.303 603.5,330.5C 604.694,319.631 601.694,309.964 594.5,301.5C 611.153,278.88 626.32,255.213 640,230.5C 642.397,228.218 645.231,226.884 648.5,226.5 Z"/></g>
<g><path style="opacity:0.97" fill="#ff8b16" d="M 663.5,259.5 C 665.963,269.022 668.296,278.689 670.5,288.5C 623.029,358.751 576.529,429.751 531,501.5C 527.629,505.101 523.795,508.101 519.5,510.5C 513.182,508.008 507.182,505.008 501.5,501.5C 531.85,448.152 563.85,395.819 597.5,344.5C 600.054,340.059 602.054,335.392 603.5,330.5C 604.423,331.303 605.423,331.47 606.5,331C 609.427,328.618 612.261,326.118 615,323.5C 626.996,301.5 639.996,280.167 654,259.5C 655.974,256.882 657.807,257.048 659.5,260C 661.066,260.765 662.399,260.598 663.5,259.5 Z"/></g>
<g><path style="opacity:0.851" fill="#ff6c26" d="M 492.5,260.5 C 491.711,270.93 496.044,278.263 505.5,282.5C 501.036,292.504 495.036,301.671 487.5,310C 484.621,312.385 481.621,314.552 478.5,316.5C 474.271,311.722 470.271,306.722 466.5,301.5C 472.42,285.97 481.087,272.303 492.5,260.5 Z"/></g>
<g><path style="opacity:0.937" fill="#ff7222" d="M 538.5,275.5 C 539.929,276.234 540.929,277.401 541.5,279C 497.295,347.911 452.461,416.411 407,484.5C 404.072,489.163 404.239,493.829 407.5,498.5C 392.833,498.5 378.167,498.5 363.5,498.5C 373.97,488.199 383.137,476.866 391,464.5C 414.392,426.614 437.559,388.614 460.5,350.5C 473.745,343.196 479.745,331.863 478.5,316.5C 481.621,314.552 484.621,312.385 487.5,310C 495.036,301.671 501.036,292.504 505.5,282.5C 517.906,286.582 528.906,284.249 538.5,275.5 Z"/></g>
<g><path style="opacity:0.969" fill="#ff9213" d="M 670.5,288.5 C 675.485,298.786 679.485,309.453 682.5,320.5C 637.255,388.649 591.255,456.316 544.5,523.5C 535.975,519.405 527.642,515.072 519.5,510.5C 523.795,508.101 527.629,505.101 531,501.5C 576.529,429.751 623.029,358.751 670.5,288.5 Z"/></g>
<g><path style="opacity:0.963" fill="#ff3545" d="M 173.5,319.5 C 174.3,332.698 177.3,345.364 182.5,357.5C 174.066,365.103 166.899,373.769 161,383.5C 123.473,446.673 83.9731,508.507 42.5,569C 41.2068,569.49 39.8734,569.657 38.5,569.5C 35.2005,555.159 33.8672,540.492 34.5,525.5C 81.2255,460.23 125.059,392.897 166,323.5C 167.577,320.461 170.077,319.128 173.5,319.5 Z"/></g>
<g><path style="opacity:0.965" fill="#ff980f" d="M 682.5,320.5 C 686.574,333.137 689.574,346.137 691.5,359.5C 650.109,420.592 609.942,482.592 571,545.5C 568.52,546.812 566.02,547.812 563.5,548.5C 555.479,541.463 549.146,533.13 544.5,523.5C 591.255,456.316 637.255,388.649 682.5,320.5 Z"/></g>
<g><path style="opacity:0.956" fill="#ff6629" d="M 429.5,329.5 C 429.58,335.319 431.58,340.319 435.5,344.5C 403.493,397.485 369.16,448.818 332.5,498.5C 322.833,498.5 313.167,498.5 303.5,498.5C 304.078,495.72 304.745,493.053 305.5,490.5C 306.382,492.384 307.882,493.717 310,494.5C 344.918,439.912 380.251,385.578 416,331.5C 419.876,326.97 424.376,326.303 429.5,329.5 Z"/></g>
<g><path style="opacity:0.954" fill="#ff6c26" d="M 435.5,344.5 C 443.153,349.033 451.486,351.033 460.5,350.5C 437.559,388.614 414.392,426.614 391,464.5C 383.137,476.866 373.97,488.199 363.5,498.5C 353.167,498.5 342.833,498.5 332.5,498.5C 369.16,448.818 403.493,397.485 435.5,344.5 Z"/></g>
<g><path style="opacity:0.931" fill="#ff8619" d="M 597.5,344.5 C 563.85,395.819 531.85,448.152 501.5,501.5C 491.216,500.038 480.883,499.038 470.5,498.5C 477.745,485.405 485.245,472.405 493,459.5C 503.104,444.28 512.937,428.947 522.5,413.5C 540.19,406.45 546.19,393.784 540.5,375.5C 541.552,375.649 542.552,375.483 543.5,375C 551.632,369.399 557.632,362.066 561.5,353C 563.519,352.55 565.352,351.717 567,350.5C 568.626,350.854 570.459,350.854 572.5,350.5C 581.506,351.165 589.839,349.165 597.5,344.5 Z"/></g>
<g><path style="opacity:0.958" fill="#ff3b42" d="M 182.5,357.5 C 189.102,362.095 195.435,367.095 201.5,372.5C 151.525,447.796 101.192,522.796 50.5,597.5C 43.2561,589.667 39.2561,580.333 38.5,569.5C 39.8734,569.657 41.2068,569.49 42.5,569C 83.9731,508.507 123.473,446.673 161,383.5C 166.899,373.769 174.066,365.103 182.5,357.5 Z"/></g>
<g><path style="opacity:0.956" fill="#ff9f0b" d="M 691.5,359.5 C 696.434,375.227 700.767,391.227 704.5,407.5C 701.138,407.07 698.305,408.07 696,410.5C 662.641,466.576 626.808,520.909 588.5,573.5C 579.167,566.167 570.833,557.833 563.5,548.5C 566.02,547.812 568.52,546.812 571,545.5C 609.942,482.592 650.109,420.592 691.5,359.5 Z"/></g>
<g><path style="opacity:0.974" fill="#ff413e" d="M 201.5,372.5 C 207.285,375.095 213.285,377.095 219.5,378.5C 219.965,382.792 219.132,386.792 217,390.5C 168.788,463.093 120.954,535.927 73.5,609C 75.1109,611.21 75.7776,613.71 75.5,616.5C 64.0072,614.342 55.6738,608.009 50.5,597.5C 101.192,522.796 151.525,447.796 201.5,372.5 Z"/></g>
<g><path style="opacity:0.961" fill="#ff463b" d="M 251.5,375.5 C 250.255,380.668 248.422,385.668 246,390.5C 221.567,430.258 195.567,468.925 168,506.5C 146.305,541.897 125.138,577.563 104.5,613.5C 95.0585,617.041 85.3918,618.041 75.5,616.5C 75.7776,613.71 75.1109,611.21 73.5,609C 120.954,535.927 168.788,463.093 217,390.5C 219.132,386.792 219.965,382.792 219.5,378.5C 230.325,378.973 240.992,377.973 251.5,375.5 Z"/></g>
<g><path style="opacity:0.928" fill="#ff7f1b" d="M 498.5,407.5 C 505.997,411.374 513.997,413.374 522.5,413.5C 512.937,428.947 503.104,444.28 493,459.5C 485.245,472.405 477.745,485.405 470.5,498.5C 458.833,498.5 447.167,498.5 435.5,498.5C 440.798,482.904 447.965,468.237 457,454.5C 469.576,440.757 480.409,425.757 489.5,409.5C 492.193,407.73 495.193,407.063 498.5,407.5 Z"/></g>
<g><path style="opacity:0.952" fill="#ffa508" d="M 704.5,407.5 C 706.718,424.127 708.718,440.793 710.5,457.5C 707.146,458.261 704.313,459.928 702,462.5C 675.749,505.341 648.749,547.675 621,589.5C 617.931,592.446 614.431,594.446 610.5,595.5C 608.345,595.628 606.345,595.128 604.5,594C 598.952,587.291 593.619,580.458 588.5,573.5C 626.808,520.909 662.641,466.576 696,410.5C 698.305,408.07 701.138,407.07 704.5,407.5 Z"/></g>
<g><path style="opacity:0.953" fill="#ffab03" d="M 710.5,457.5 C 710.129,476.312 711.463,494.979 714.5,513.5C 714.376,514.107 714.043,514.44 713.5,514.5C 686.976,545.396 664.309,579.063 645.5,615.5C 645.043,616.298 644.376,616.631 643.5,616.5C 631.001,611.757 620.001,604.757 610.5,595.5C 614.431,594.446 617.931,592.446 621,589.5C 648.749,547.675 675.749,505.341 702,462.5C 704.313,459.928 707.146,458.261 710.5,457.5 Z"/></g>
<g><path style="opacity:0.832" fill="#ffb000" d="M 713.5,514.5 C 711.611,533.498 709.778,552.498 708,571.5C 700.04,605.966 678.54,620.966 643.5,616.5C 644.376,616.631 645.043,616.298 645.5,615.5C 664.309,579.063 686.976,545.396 713.5,514.5 Z"/></g>
</svg>
