<?xml version="1.0" standalone="no"?>
<!DOCTYPE svg PUBLIC "-//W3C//DTD SVG 20010904//EN"
 "http://www.w3.org/TR/2001/REC-SVG-20010904/DTD/svg10.dtd">
<svg version="1.0" xmlns="http://www.w3.org/2000/svg"
 width="549.000000pt" height="454.000000pt" viewBox="0 0 549.000000 454.000000"
 preserveAspectRatio="xMidYMid meet">

<g transform="translate(0.000000,454.000000) scale(0.100000,-0.100000)"
fill="#000000" stroke="none">
<path d="M1884 4529 c-41 -12 -91 -69 -99 -111 -13 -76 -63 -1248 -54 -1281
10 -38 51 -81 92 -96 39 -15 1805 -15 1844 0 41 15 82 58 92 96 7 23 0 242
-20 656 -33 688 -32 680 -101 722 -32 19 -55 20 -878 22 -493 1 -858 -2 -876
-8z m386 -519 l0 -310 280 0 280 0 0 -55 0 -55 -380 0 -380 0 0 358 c0 197 3
362 7 365 3 4 48 7 100 7 l93 0 0 -310z"/>
<path d="M1598 4133 l-87 -218 -41 -545 c-22 -300 -43 -569 -46 -597 l-6 -53
70 0 70 0 36 193 c35 186 37 210 67 799 17 334 29 614 27 623 -2 8 -42 -83
-90 -202z"/>
<path d="M3801 4305 c0 -27 15 -324 33 -660 l34 -610 56 -275 c31 -151 58
-285 61 -297 5 -20 12 -23 56 -23 l51 0 -6 53 c-3 28 -28 360 -56 737 l-51
685 -62 155 c-33 85 -74 184 -89 220 l-27 65 0 -50z"/>
<path d="M1706 2877 c-17 -18 -40 -58 -51 -87 -11 -30 -21 -58 -23 -62 -2 -3
135 -8 305 -10 l308 -3 57 -28 c94 -46 183 -166 265 -359 l38 -88 210 0 211 0
18 32 c33 55 88 109 140 136 l51 27 368 3 c202 2 367 4 367 5 0 1 -36 92 -79
202 -52 134 -88 211 -108 233 l-30 32 -1008 0 -1008 0 -31 -33z"/>
<path d="M490 2568 c-44 -12 -86 -52 -100 -92 -15 -47 -71 -1257 -60 -1296 14
-49 35 -75 73 -93 31 -15 126 -17 939 -17 886 -1 907 -1 944 18 41 21 61 47
74 93 8 27 -44 1211 -56 1278 -7 45 -59 96 -109 110 -52 14 -1654 14 -1705 -1z
m915 -228 c14 -5 37 -22 50 -36 23 -25 25 -35 25 -127 l0 -100 -36 -33 c-25
-24 -31 -34 -19 -34 9 0 32 -15 51 -34 l34 -34 0 -111 c0 -60 -5 -121 -11
-134 -6 -14 -28 -34 -49 -46 -37 -20 -49 -21 -409 -21 l-371 0 0 360 0 360
354 0 c210 0 365 -4 381 -10z"/>
<path d="M870 2155 l0 -85 191 0 c112 0 198 4 210 10 16 9 19 22 19 73 0 36
-5 68 -12 75 -9 9 -69 12 -210 12 l-198 0 0 -85z"/>
<path d="M870 1850 l0 -110 213 0 c152 0 216 3 225 12 16 16 16 180 0 196 -9
9 -73 12 -225 12 l-213 0 0 -110z"/>
<path d="M198 2173 l-87 -218 -56 -730 c-31 -401 -54 -748 -50 -770 9 -60 47
-117 97 -145 l43 -25 1178 -3 c845 -2 1190 1 1220 9 56 15 121 81 137 138 10
37 2 163 -45 785 l-57 741 -89 220 c-87 217 -88 219 -88 165 0 -30 15 -332 34
-670 l34 -615 65 -315 c36 -173 63 -316 62 -317 -1 -2 -35 81 -76 185 -107
274 -123 308 -159 326 -27 14 -138 16 -1016 16 -863 0 -990 -2 -1015 -15 -37
-19 -56 -58 -155 -312 -44 -111 -80 -201 -82 -199 -2 1 27 148 63 327 l66 324
34 625 c19 344 33 640 32 658 -2 26 -21 -12 -90 -185z"/>
<path d="M3285 2285 c-49 -17 -92 -63 -100 -107 -12 -68 -63 -1250 -55 -1277
13 -48 39 -77 82 -97 41 -18 81 -19 923 -19 484 0 897 4 917 8 48 10 93 53
107 101 12 46 -43 1251 -60 1303 -13 40 -58 79 -107 93 -24 6 -321 10 -852 10
-676 -1 -822 -3 -855 -15z m951 -574 c101 -195 184 -358 184 -362 0 -4 -45 -7
-100 -7 l-101 0 -49 99 -50 99 -198 0 -197 0 -50 -98 -50 -97 -102 -1 c-57 -1
-103 1 -103 3 0 2 84 166 187 364 l187 360 129 -3 129 -3 184 -354z"/>
<path d="M3856 1802 c-36 -72 -66 -136 -66 -142 0 -6 50 -10 135 -10 74 0 135
3 134 8 0 4 -31 68 -68 142 l-68 135 -67 -133z"/>
<path d="M2998 1891 l-86 -216 -57 -741 c-47 -622 -55 -748 -45 -785 16 -57
81 -123 137 -138 30 -8 375 -11 1220 -9 l1178 3 45 27 c50 29 86 83 95 144 4
21 -19 368 -50 769 l-56 730 -87 217 c-69 172 -88 210 -90 185 -1 -18 13 -313
32 -657 l34 -625 66 -324 c36 -179 65 -326 63 -327 -2 -2 -38 88 -82 199 -99
254 -118 293 -155 312 -25 13 -152 15 -1015 15 -857 0 -990 -2 -1015 -15 -35
-18 -60 -70 -161 -327 -40 -104 -73 -187 -75 -185 -1 1 27 144 62 317 l65 315
34 625 c20 344 34 644 33 666 -3 38 -11 22 -90 -175z"/>
</g>
</svg>
